# xmcd
#
# Track frame offsets:
#	150
#	13381
#	30576
#	48587
#	66669
#	83082
#	100924
#	117513
#	132072
#	149295
#	164004
#	177896
#	194555
#	208791
#	222129
#	234149
#	247828
#	267009
#	281197
#
# Disc length: 3967 seconds
#
# Revision: 0
# Processed by: cddbd v1.5.2PL0 Copyright (c) Steve Scherf et al.
# Submitted via: audiograbber 1.83.01
#
DISCID=1e0f7d13
DTITLE=Various Artist - Hott Country 159
DYEAR=2009
DGENRE=Country
TTITLE0=Reba McEntire - Strange
TTITLE1=Taylor Swift - You Belong To Me ( Single )
TTITLE2=lee Ann Womack - Solitary Thinking
TTITLE3=Martina McBride - I Just Call You Mine
TTITLE4=Jason Aldean - She's Country  ( Single )
TTITLE5=Brooks and Dunn - Indian Summer ( Radio Edit )
TTITLE6=Miranda Lambert - Dead Flowers
TTITLE7=Aaron Lines - Sand
TTITLE8=Darius Rucker - Alright
TTITLE9=Brad Johner - I Want It
TTITLE10=Joe Nichols - Believer
TTITLE11=Caitlin and Will - Address To The Stars
TTITLE12=Tracy Bone - Lonely With You
TTITLE13=Diane Chase - Rich Girl
TTITLE14=Rodney Atkins - 15 Minutes
TTITLE15=Randy Travis - Turn It Around
TTITLE16=Carrie Undeerwood feat Randy Travis - I Told You So
TTITLE17=Eric Church - Smnoke A Little Smoke
TTITLE18=Ronnie Milsap - Happy Happy Birthday Baby ( 1986 )
EXTD=May 2009
EXTT0=
EXTT1=
EXTT2=
EXTT3=
EXTT4=
EXTT5=
EXTT6=
EXTT7=
EXTT8=
EXTT9=
EXTT10=
EXTT11=
EXTT12=
EXTT13=
EXTT14=
EXTT15=
EXTT16=
EXTT17=
EXTT18=
PLAYORDER=
